<svg xmlns="http://www.w3.org/2000/svg" width="146" height="47" fill="none"><path fill="#FF6060" d="m14.34 23.887-7.745 7.92v11.114H.5V0h6.095v24.015L29.703 0h6.984L18.53 19.289 37.956 42.92h-7.11L14.34 23.887ZM82.396 39.472l2.412-4.599c2.793 1.916 7.11 3.321 11.3 3.321 5.46 0 7.619-1.66 7.619-4.47 0-7.282-20.443-1.022-20.443-13.924 0-5.876 5.206-9.709 13.46-9.709 4.189 0 9.014 1.15 11.808 2.939l-2.54 4.598c-2.92-1.916-6.094-2.555-9.269-2.555-5.078 0-7.618 1.916-7.618 4.471 0 7.665 20.442 1.405 20.442 14.052 0 5.876-5.332 9.58-13.966 9.58-5.206.128-10.539-1.533-13.205-3.704ZM145.5 23.249V42.92h-5.587v-4.343c-1.904 2.938-5.586 4.598-10.665 4.598-7.364 0-11.935-3.96-11.935-9.58 0-5.238 3.301-9.453 12.951-9.453h9.269v-1.15c0-4.982-2.921-7.792-8.634-7.792-3.81 0-7.746 1.405-10.285 3.45l-2.412-4.472c3.301-2.682 8.126-4.215 13.331-4.215 9.015.127 13.967 4.47 13.967 13.285Zm-5.84 9.708v-4.599h-9.015c-5.841 0-7.492 2.3-7.492 4.982 0 3.194 2.667 5.237 7.111 5.237 4.444.128 7.999-1.788 9.396-5.62ZM63.604 34.362v8.686l3.682-2.171V32.19l-3.682 2.172Z"/><path fill="#FF6060" d="m73.762 23.76-15.11-8.814-8.38-4.854-8.253 14.434.127 13.54 14.983 8.815 1.523-.895V33.212l6.73-11.88 6.856 3.96v12.774l1.524-.894V23.76Z"/></svg>