<svg xmlns="http://www.w3.org/2000/svg" width="123" height="41" fill="none"><path fill="#fff" d="m12.145 20.74-6.517 6.664v9.35H.5V.642h5.128v20.206L25.07.642h5.876L15.67 16.87l16.345 19.883h-5.983L12.145 20.74ZM69.405 33.853l2.03-3.87c2.35 1.613 5.983 2.795 9.508 2.795 4.594 0 6.41-1.397 6.41-3.762 0-6.126-17.2-.86-17.2-11.715 0-4.944 4.38-8.168 11.324-8.168 3.526 0 7.585.967 9.935 2.472l-2.136 3.869c-2.457-1.612-5.128-2.15-7.799-2.15-4.273 0-6.41 1.613-6.41 3.762 0 6.449 17.2 1.182 17.2 11.823 0 4.944-4.487 8.06-11.751 8.06-4.38.108-8.867-1.29-11.11-3.116ZM122.5 20.203v16.551h-4.701V33.1c-1.602 2.472-4.7 3.87-8.973 3.87-6.196 0-10.042-3.333-10.042-8.062 0-4.406 2.777-7.953 10.896-7.953h7.799v-.967c0-4.192-2.457-6.556-7.264-6.556-3.205 0-6.517 1.182-8.654 2.902l-2.03-3.762c2.778-2.257 6.838-3.547 11.218-3.547 7.585.107 11.751 3.762 11.751 11.178Zm-4.914 8.168v-3.87h-7.585c-4.914 0-6.303 1.935-6.303 4.192 0 2.687 2.243 4.407 5.982 4.407 3.739.108 6.731-1.505 7.906-4.729ZM53.595 29.554v7.308l3.098-1.827v-7.308l-3.098 1.827Z"/><path fill="#fff" d="m62.141 20.633-12.713-7.416-7.05-4.084-6.944 12.145.106 11.392 12.606 7.416 1.282-.752V28.586l5.662-9.995 5.769 3.332V32.67l1.282-.752V20.633Z"/></svg>